<svg xmlns="http://www.w3.org/2000/svg" width="32" height="32" viewBox="5.76 4.61 20.48 20.63">
  <g fill="none" stroke="#000000" stroke-width="3" stroke-linecap="round" stroke-linejoin="round" shape-rendering="geometricPrecision">
    <path d="M16 10 L9 16 L16 22 L23 16 Z"/>
    <path d="M9 16 L23 16"/>
    <path d="M12.2 8.4 C14.5 6.2 17.5 6.2 19.8 8.4"/>
  </g>
  <g fill="none" stroke="#00D26A" stroke-width="2" stroke-linecap="round" stroke-linejoin="round" shape-rendering="geometricPrecision">
    <path d="M16 10 L9 16 L16 22 L23 16 Z"/>
    <path d="M9 16 L23 16"/>
    <path d="M12.2 8.4 C14.5 6.2 17.5 6.2 19.8 8.4"/>
  </g>
  <g shape-rendering="geometricPrecision">
    <circle cx="16" cy="10" r="2.6" fill="#000000"/>
    <circle cx="9"  cy="16" r="2.6" fill="#000000"/>
    <circle cx="23" cy="16" r="2.6" fill="#000000"/>
    <circle cx="16" cy="22" r="2.6" fill="#000000"/>
    <circle cx="16" cy="10" r="2.0" fill="#00D26A"/>
    <circle cx="9"  cy="16" r="2.0" fill="#00D26A"/>
    <circle cx="23" cy="16" r="2.0" fill="#00D26A"/>
    <circle cx="16" cy="22" r="2.0" fill="#00D26A"/>
  </g>
</svg>
